<?xml version="1.0" encoding="UTF-8"?>
<svg version="1.1" xmlns="http://www.w3.org/2000/svg" width="2048" height="2048">
<path d="M0 0 C0.763125 0.20625 1.52625 0.4125 2.3125 0.625 C2.04737419 4.86701299 1.55941206 7.54032875 -0.9375 11 C-9.60222761 24.1360302 -10.67236449 40.98194458 -7.6953125 56.01953125 C-6.68356358 60.6875399 -5.54256227 65.31908173 -4.36328125 69.94726562 C-1.07813294 82.96442843 1.34607061 95.4135466 1.4375 108.875 C1.44233398 109.54934082 1.44716797 110.22368164 1.45214844 110.91845703 C1.43826907 114.92265584 1.08111359 118.69653055 0.3125 122.625 C1.40820312 122.2125 2.50390625 121.8 3.6328125 121.375 C13.50718723 117.75241056 23.39562117 114.77867554 33.60083008 112.23898315 C44.52168519 109.51675444 54.05719338 106.47524469 63.4765625 100.21484375 C66.3125 98.625 66.3125 98.625 68.7109375 98.87890625 C69.23945312 99.12511719 69.76796875 99.37132812 70.3125 99.625 C71.0625 102.1875 71.0625 102.1875 71.3125 105.625 C70.36937005 107.3382841 69.41873566 109.04848691 68.40820312 110.72290039 C66.6867768 113.71123206 65.44095971 116.85572536 64.1875 120.0625 C63.92888184 120.72137207 63.67026367 121.38024414 63.40380859 122.05908203 C58.88068799 133.77057858 58.02524505 142.74984195 62.3125 154.625 C63.98252189 158.35470421 65.83553264 161.98299461 67.6875 165.625 C72.51152165 175.42559716 76.08795993 184.93537215 78.3125 195.625 C78.54324219 196.70523438 78.77398438 197.78546875 79.01171875 198.8984375 C80.00906793 204.62789025 80.34162732 210.05666767 80.296875 215.86328125 C80.26357189 230.568686 81.6935745 239.96181387 89.78417969 252.19384766 C92.74871162 256.90963184 95.19971168 261.89607406 97.6875 266.875 C98.23188721 267.96385498 98.77627441 269.05270996 99.3371582 270.17456055 C108.83738123 289.53152712 116.83555468 309.75750583 122.3125 330.625 C122.49184082 331.30062988 122.67118164 331.97625977 122.85595703 332.67236328 C123.89005959 336.60311165 124.85790292 340.54665914 125.79736328 344.50097656 C126.35142555 346.78549872 126.93795601 349.06028428 127.52734375 351.3359375 C131.15753263 365.6016511 133.52512948 380.01618148 135.3125 394.625 C135.40026199 395.31981979 135.48802399 396.01463959 135.57844543 396.73051453 C136.42695521 404.13113957 136.47404171 411.49075889 136.48046875 418.93359375 C136.48369451 420.30868054 136.48705949 421.68376702 136.49055481 423.05885315 C136.49650913 425.93239127 136.49839879 428.80589951 136.49780273 431.67944336 C136.49772184 434.58543166 136.50460979 437.49126109 136.51831055 440.3972168 C136.59183661 456.23832969 136.56585795 471.90790381 134.3125 487.625 C134.09339966 489.25248169 134.09339966 489.25248169 133.86987305 490.9128418 C133.47454595 493.70051153 133.03409711 496.47429975 132.5625 499.25 C132.39548584 500.23871094 132.22847168 501.22742187 132.05639648 502.24609375 C129.06422496 519.30589733 124.96857422 536.2474642 119.3125 552.625 C118.95639648 553.66060059 118.60029297 554.69620117 118.23339844 555.76318359 C111.43384796 575.42370788 103.83572213 594.14319123 94.3125 612.625 C93.96993164 613.29611816 93.62736328 613.96723633 93.27441406 614.65869141 C81.64960592 637.38286204 68.18053598 658.50826173 51.58984375 677.94921875 C49.35827507 680.57121625 47.20987216 683.24638956 45.0625 685.9375 C39.17027677 693.15887483 32.7473047 699.88957695 26.3125 706.625 C25.45269531 707.52734375 24.59289063 708.4296875 23.70703125 709.359375 C19.7985749 713.37461978 19.7985749 713.37461978 18.3125 714.625 C17.6525 714.625 16.9925 714.625 16.3125 714.625 C16.3125 715.285 16.3125 715.945 16.3125 716.625 C14.9140625 718.03515625 14.9140625 718.03515625 12.9375 719.6875 C9.72152673 722.41175152 6.59435501 725.20084049 3.5 728.0625 C-0.70363164 731.85664546 -5.08895803 735.19115928 -9.70703125 738.4609375 C-13.09454257 740.92054598 -16.35486145 743.51299412 -19.625 746.125 C-30.80459468 754.97281189 -42.80041735 762.19530999 -55.1875 769.20605469 C-57.60089183 770.5758431 -60.0036068 771.96303495 -62.40625 773.3515625 C-98.921748 794.21863637 -139.5531909 807.8994616 -180.9375 814.875 C-182.05099319 815.06313263 -182.05099319 815.06313263 -183.1869812 815.25506592 C-203.42354309 818.63320305 -223.22354733 820.03710086 -243.75 820 C-244.93792145 819.99912384 -246.1258429 819.99824768 -247.34976196 819.99734497 C-286.84487738 819.90159161 -326.20666198 814.41469173 -363.69140625 801.62109375 C-366.83889154 800.57466774 -370.00720802 799.62910845 -373.1875 798.6875 C-378.57112846 797.04732645 -383.70608451 795.06099873 -388.87109375 792.83203125 C-391.37422226 791.75926189 -393.89152964 790.77733351 -396.4375 789.8125 C-403.74294415 786.89729097 -410.70319678 783.22673005 -417.6875 779.625 C-418.86820068 779.01615967 -418.86820068 779.01615967 -420.07275391 778.39501953 C-445.28598767 765.34813964 -445.28598767 765.34813964 -456.5703125 756.92578125 C-459.68259958 754.62861698 -462.83767873 752.40581105 -466.00878906 750.19116211 C-473.10815592 745.23011218 -479.99521891 740.12806041 -486.6875 734.625 C-487.46867188 734.0165625 -488.24984375 733.408125 -489.0546875 732.78125 C-494.64609973 728.42244941 -499.88512911 723.77799021 -505.04614258 718.92480469 C-507.65561001 716.47468471 -510.28271962 714.12419005 -513.078125 711.88671875 C-513.93921875 711.14035156 -514.8003125 710.39398437 -515.6875 709.625 C-515.6875 708.965 -515.6875 708.305 -515.6875 707.625 C-516.6775 707.295 -517.6675 706.965 -518.6875 706.625 C-520.45792918 705.01078516 -522.06402445 703.38174593 -523.6875 701.625 C-524.68136719 700.55185547 -524.68136719 700.55185547 -525.6953125 699.45703125 C-531.25897305 693.36026734 -536.51144334 687.05159195 -541.6875 680.625 C-542.63616872 679.46829868 -543.58541467 678.31207058 -544.53515625 677.15625 C-551.76805702 668.30360354 -558.37340735 659.15136755 -564.6875 649.625 C-565.15043457 648.93116211 -565.61336914 648.23732422 -566.09033203 647.52246094 C-580.49492644 625.87825172 -592.56067976 603.00627899 -601.6875 578.625 C-602.21974324 577.24076663 -602.75231084 575.85665794 -603.28515625 574.47265625 C-611.59493977 552.65408631 -618.6650566 530.64706967 -622.6875 507.625 C-622.90390137 506.4189209 -623.12030273 505.2128418 -623.34326172 503.97021484 C-628.43875952 475.18301635 -630.71823943 446.5550439 -628.875 417.3125 C-628.83248108 416.61756439 -628.78996216 415.92262878 -628.74615479 415.20663452 C-628.17907408 406.06706611 -627.34393642 397.00841937 -626.0625 387.9375 C-624.32674566 375.31570006 -624.51451455 365.00057521 -627.1875 352.5 C-632.58897361 326.80311604 -626.95688432 308.84318235 -616.64453125 285.1640625 C-615.3802476 282.26071 -614.16624668 279.3471363 -613.01171875 276.3984375 C-606.25286513 259.17347882 -598.46479652 243.1572328 -585.6875 229.625 C-584.03866594 227.79436494 -582.39263354 225.96120084 -580.75 224.125 C-580.06035156 223.3721875 -579.37070312 222.619375 -578.66015625 221.84375 C-576.57919991 219.50318921 -574.64164378 217.07171721 -572.6875 214.625 C-571.04320171 212.93626121 -569.37365782 211.27194485 -567.6875 209.625 C-567.19636719 209.11195313 -566.70523438 208.59890625 -566.19921875 208.0703125 C-562.84350046 204.5944611 -559.34811333 201.50428035 -555.5625 198.5 C-551.19032836 194.99271906 -547.26737025 191.26426444 -543.375 187.25 C-536.97695737 180.67567887 -529.99193578 175.1494407 -522.6875 169.625 C-521.31078125 168.48224609 -521.31078125 168.48224609 -519.90625 167.31640625 C-517.6875 165.625 -517.6875 165.625 -515.6875 165.625 C-515.6875 164.965 -515.6875 164.305 -515.6875 163.625 C-513.95703125 162.1015625 -513.95703125 162.1015625 -511.5 160.25 C-507.1878615 156.89543681 -503.16361976 153.36140381 -499.1875 149.625 C-489.78107489 140.84992415 -479.63088601 133.3107848 -469.171875 125.84375 C-466.53186397 123.95834396 -463.91234551 122.05484757 -461.328125 120.09375 C-444.28236261 107.3730318 -425.20424835 97.38509819 -405.875 88.62255859 C-403.92658039 87.73402706 -401.99220567 86.82282009 -400.0625 85.89453125 C-387.54783621 79.92859471 -374.66405806 75.52814935 -361.4375 71.4375 C-360.36089111 71.10443848 -359.28428223 70.77137695 -358.17504883 70.42822266 C-351.062084 68.26314698 -343.90991681 66.38552759 -336.6875 64.625 C-333.72230968 63.87857963 -330.76469843 63.10872767 -327.8125 62.3125 C-327.05001953 62.10737793 -326.28753906 61.90225586 -325.50195312 61.69091797 C-319.33941471 59.9623697 -313.79825138 57.58833972 -308.09375 54.6640625 C-304.75817782 53.64655998 -303.74569153 53.63606446 -300.48046875 54.16015625 C-292.92296129 55.16555822 -285.6001911 53.32199734 -278.18591309 51.93740845 C-273.58937045 51.08188914 -268.9840558 50.27643021 -264.37890625 49.46875 C-263.45906952 49.30671585 -262.53923279 49.1446817 -261.59152222 48.97773743 C-248.68469457 46.72369696 -235.70427625 45.10290569 -222.6875 43.625 C-221.94761841 43.54098938 -221.20773682 43.45697876 -220.44543457 43.37042236 C-204.08603467 41.52069428 -187.72315223 39.77443354 -171.32128906 38.34545898 C-166.55268715 37.89858813 -161.99278818 37.12065211 -157.3125 36.0625 C-151.19429253 34.7198015 -145.37880079 34.39449138 -139.125 34.25 C-124.74227312 33.84988083 -110.8032066 31.26124922 -96.6875 28.625 C-95.3515901 28.37794314 -94.01565245 28.13103631 -92.6796875 27.88427734 C-55.03263898 21.98815916 -55.03263898 21.98815916 -19.6875 8.625 C-16.63578558 7.10428036 -13.57945226 5.59350281 -10.52099609 4.08642578 C-1.8036652 -0.25167421 -1.8036652 -0.25167421 0 0 Z " fill="#643D32" transform="translate(1280.6875,650.375)"/>
<path d="M0 0 C1.61460365 -0.00472824 1.61460365 -0.00472824 3.26182556 -0.009552 C5.01469627 -0.00651566 5.01469627 -0.00651566 6.80297852 -0.00341797 C8.62322289 -0.00485306 8.62322289 -0.00485306 10.48023987 -0.00631714 C13.06185965 -0.00699899 15.64348114 -0.00514434 18.22509766 -0.00097656 C22.10721904 0.00429318 25.9892205 -0.00088005 29.87133789 -0.00732422 C40.92872783 -0.01141333 51.98144193 0.01999474 63.02954102 0.51220703 C64.17669838 0.55775223 64.17669838 0.55775223 65.34703064 0.60421753 C69.91664621 0.8460367 74.19896698 1.56119006 78.64447021 2.64759827 C82.36564458 3.50137011 86.15118356 3.93226662 89.93188477 4.44189453 C98.45557075 5.64441968 106.78380103 7.37781704 115.14550781 9.41577148 C120.68489701 10.74764931 126.06814166 11.61180397 131.74438477 12.12939453 C131.74438477 12.78939453 131.74438477 13.44939453 131.74438477 14.12939453 C132.73825195 14.24927734 133.73211914 14.36916016 134.75610352 14.49267578 C144.59274817 15.90921194 154.08913559 19.23391886 162.39672852 24.65673828 C170.19462794 29.54826587 179.25467392 32.64757595 187.74438477 36.12939453 C187.74438477 36.78939453 187.74438477 37.44939453 187.74438477 38.12939453 C188.67250977 38.31501953 189.60063477 38.50064453 190.55688477 38.69189453 C198.52895499 40.96498991 205.04280747 46.32873769 210.74438477 52.12939453 C212.37387423 53.46213145 214.02049933 54.77413699 215.68188477 56.06689453 C221.07042542 60.41413612 225.90601078 65.16922154 230.75073242 70.10888672 C233.75092962 73.16131172 236.75415546 76.08655058 240.05688477 78.81689453 C245.58063045 83.50370905 252.3731997 89.8000839 253.74438477 97.12939453 C254.72086493 98.15237375 255.72569815 99.14843705 256.74438477 100.12939453 C259.99146852 104.30421651 261.25070648 106.81301656 260.74438477 112.12939453 C261.40438477 112.12939453 262.06438477 112.12939453 262.74438477 112.12939453 C263.07438477 113.77939453 263.40438477 115.42939453 263.74438477 117.12939453 C264.40438477 117.12939453 265.06438477 117.12939453 265.74438477 117.12939453 C280.6927043 152.23343999 288.40134361 191.55778052 277.74438477 229.12939453 C277.49430664 230.12712891 277.24422852 231.12486328 276.98657227 232.15283203 C271.82816997 252.37139734 271.82816997 252.37139734 267.74438477 261.12939453 C266.75438477 261.62439453 266.75438477 261.62439453 265.74438477 262.12939453 C264.82001775 264.24593582 263.97745996 266.39865527 263.18188477 268.56689453 C260.78235945 275.05344516 260.78235945 275.05344516 259.74438477 277.12939453 C259.08438477 277.12939453 258.42438477 277.12939453 257.74438477 277.12939453 C257.08438477 279.43939453 256.42438477 281.74939453 255.74438477 284.12939453 C255.08438477 284.12939453 254.42438477 284.12939453 253.74438477 284.12939453 C253.49688477 284.82033203 253.24938477 285.51126953 252.99438477 286.22314453 C251.03620288 290.77591741 248.27233427 294.79865047 245.61938477 298.97314453 C244.0159228 301.6723055 242.8983363 304.22933211 241.74438477 307.12939453 C240.10070336 308.81873375 238.43009717 310.48199377 236.74438477 312.12939453 C235.14099959 314.24097796 233.59761573 316.3837535 232.07641602 318.55517578 C231.6368457 319.07466797 231.19727539 319.59416016 230.74438477 320.12939453 C230.08438477 320.12939453 229.42438477 320.12939453 228.74438477 320.12939453 C228.36733398 320.98210937 228.36733398 320.98210937 227.98266602 321.85205078 C224.60816177 328.05815795 218.76649129 333.23605997 213.74438477 338.12939453 C213.2584082 338.63728516 212.77243164 339.14517578 212.27172852 339.66845703 C207.97071558 344.12198816 203.32195331 347.99473103 198.50219727 351.87548828 C196.02174635 353.90271233 193.62334517 355.98491947 191.24438477 358.12939453 C188.02866216 361.02468926 184.7361562 363.78617964 181.36938477 366.50439453 C177.54718923 369.60260874 173.864833 372.79775698 170.24438477 376.12939453 C151.06319747 393.72806566 151.06319747 393.72806566 141.58422852 398.13330078 C139.40935968 399.12536313 139.40935968 399.12536313 137.74438477 402.12939453 C134.61938477 402.81689453 134.61938477 402.81689453 131.74438477 403.12939453 C131.74438477 403.78939453 131.74438477 404.44939453 131.74438477 405.12939453 C114.79959193 414.19243801 96.65280017 415.68430203 77.83666992 413.35327148 C70.06033971 412.52119508 62.46192383 413.41169818 54.74243164 414.35839844 C49.91094189 414.93908732 45.17697222 415.2131653 40.30688477 415.31689453 C31.43573033 415.78051265 23.11874494 418.1414421 14.58642578 420.51489258 C8.20178831 422.28665876 1.9197733 423.72417342 -4.63867188 424.68896484 C-18.27197793 426.98344046 -28.84114131 435.16730507 -38.81811523 444.25439453 C-42.69441972 447.75120068 -46.6889976 450.60650942 -51.25561523 453.12939453 C-52.13731133 453.6480584 -52.13731133 453.6480584 -53.03681946 454.17720032 C-55.70684894 455.32304107 -57.67833105 455.37673924 -60.58056641 455.37231445 C-61.64655563 455.37539108 -62.71254486 455.37846771 -63.81083679 455.38163757 C-64.96179337 455.37445206 -66.11274994 455.36726654 -67.29858398 455.35986328 C-68.49558426 455.35940506 -69.69258453 455.35894684 -70.92585754 455.35847473 C-73.46702054 455.35545115 -76.00818166 455.34756172 -78.54931641 455.33520508 C-82.38312586 455.31717663 -86.21669006 455.31469401 -90.05053711 455.31494141 C-125.98704574 455.26367928 -125.98704574 455.26367928 -130.25561523 453.12939453 C-132.07951546 452.85084185 -133.9106201 452.61873426 -135.74389648 452.41064453 C-137.39228516 452.21921875 -137.39228516 452.21921875 -139.07397461 452.02392578 C-140.22704102 451.89373047 -141.38010742 451.76353516 -142.56811523 451.62939453 C-144.8352515 451.3708053 -147.10218743 451.11045218 -149.36889648 450.84814453 C-150.88157104 450.67702148 -150.88157104 450.67702148 -152.42480469 450.50244141 C-155.06794956 450.15412529 -157.64918885 449.68571868 -160.25561523 449.12939453 C-160.25561523 448.46939453 -160.25561523 447.80939453 -160.25561523 447.12939453 C-161.41834961 447.15388672 -162.58108398 447.17837891 -163.77905273 447.20361328 C-175.82098378 447.19038039 -187.14908145 443.41370225 -198.25561523 439.12939453 C-207.28726984 435.69657498 -207.28726984 435.69657498 -216.56811523 433.06689453 C-221.10336342 431.91386533 -225.05025735 430.15607303 -229.25561523 428.12939453 C-230.81795898 427.38689453 -230.81795898 427.38689453 -232.41186523 426.62939453 C-238.96981734 423.43903945 -245.35005712 420.02540742 -251.63061523 416.31689453 C-252.2914209 415.93186768 -252.95222656 415.54684082 -253.63305664 415.15014648 C-255.2104082 414.20142518 -256.73894011 413.1723742 -258.25561523 412.12939453 C-258.25561523 411.46939453 -258.25561523 410.80939453 -258.25561523 410.12939453 C-259.57561523 409.79939453 -260.89561523 409.46939453 -262.25561523 409.12939453 C-262.25561523 408.46939453 -262.25561523 407.80939453 -262.25561523 407.12939453 C-262.99038086 407.03142578 -263.72514648 406.93345703 -264.48217773 406.83251953 C-269.65934524 405.51999819 -273.26076571 401.53356591 -277.25561523 398.12939453 C-278.47785862 397.11717705 -279.70053892 396.10548697 -280.92358398 395.09423828 C-287.77184375 389.36603716 -293.91069673 383.70021088 -299.32592773 376.56689453 C-301.45617271 373.87605877 -303.82271629 371.54646974 -306.25561523 369.12939453 C-310.25561523 363.61588102 -310.25561523 363.61588102 -310.25561523 361.12939453 C-311.24561523 360.79939453 -312.23561523 360.46939453 -313.25561523 360.12939453 C-314.3797258 357.79124456 -315.34970981 355.54683877 -316.25561523 353.12939453 C-316.64749023 352.16001953 -317.03936523 351.19064453 -317.44311523 350.19189453 C-317.71124023 349.51126953 -317.97936523 348.83064453 -318.25561523 348.12939453 C-318.91561523 348.12939453 -319.57561523 348.12939453 -320.25561523 348.12939453 C-320.68874023 347.09814453 -321.12186523 346.06689453 -321.56811523 345.00439453 C-322.6150676 342.54654921 -323.72738368 340.20333055 -324.94311523 337.81689453 C-326.25561523 335.12939453 -326.25561523 335.12939453 -326.25561523 333.12939453 C-327.24561523 332.79939453 -328.23561523 332.46939453 -329.25561523 332.12939453 C-330.07204688 329.74913609 -330.69965989 327.50832689 -331.25561523 325.06689453 C-332.7125881 318.99655692 -332.7125881 318.99655692 -334.81811523 313.12939453 C-336.81498631 308.20233219 -337.55951747 302.92156874 -338.50952148 297.71533203 C-339.20067845 294.39343624 -340.18329573 291.34204654 -341.25561523 288.12939453 C-342.65591036 281.07719266 -342.54278024 273.97618469 -342.56811523 266.81689453 C-342.57106598 266.08851379 -342.57401672 265.36013306 -342.57705688 264.60968018 C-342.59173024 248.62184993 -341.9580653 231.86385678 -335.25561523 217.12939453 C-334.50459007 214.32336275 -334.50459007 214.32336275 -334.06811523 211.69189453 C-333.90956055 210.82693359 -333.75100586 209.96197266 -333.58764648 209.07080078 C-333.47807617 208.43013672 -333.36850586 207.78947266 -333.25561523 207.12939453 C-332.26561523 206.79939453 -331.27561523 206.46939453 -330.25561523 206.12939453 C-329.8056627 204.12191398 -329.3680228 202.11111382 -328.98217773 200.09033203 C-328.05370139 196.30654133 -326.7370993 192.75334108 -325.31811523 189.12939453 C-325.06505615 188.45827637 -324.81199707 187.7871582 -324.55126953 187.09570312 C-323.87473592 185.40208864 -323.07287979 183.75976455 -322.25561523 182.12939453 C-321.26561523 181.79939453 -320.27561523 181.46939453 -319.25561523 181.12939453 C-319.00811523 179.85064453 -318.76061523 178.57189453 -318.50561523 177.25439453 C-317.25200513 170.90674971 -313.91901556 166.3692058 -310.25561523 161.12939453 C-309.34147916 159.80001804 -308.42742163 158.47058753 -307.51342773 157.14111328 C-306.51236093 155.69863889 -305.50975335 154.25723259 -304.50561523 152.81689453 C-304.05331543 152.1665625 -303.60101562 151.51623047 -303.13500977 150.84619141 C-301.53671936 148.5852753 -299.90398984 146.35411633 -298.25561523 144.12939453 C-297.4932959 143.10015869 -296.73097656 142.07092285 -295.94555664 141.01049805 C-289.30560033 132.22197193 -281.93534659 124.37252677 -274.1027832 116.64038086 C-272.11667602 114.6781227 -270.1445037 112.70259848 -268.17358398 110.72509766 C-261.83133864 104.397409 -255.50204962 98.4269847 -248.25561523 93.12939453 C-246.54122815 91.69911975 -244.83191175 90.26271582 -243.13061523 88.81689453 C-237.12533921 83.88219697 -230.74638917 79.66062139 -224.23901367 75.43066406 C-222.19199599 74.08765517 -220.16353939 72.72002995 -218.13842773 71.34423828 C-217.46714844 70.88976318 -216.79586914 70.43528809 -216.10424805 69.96704102 C-214.82284467 69.09855894 -213.54342363 68.22714213 -212.26635742 67.35229492 C-209.01719927 65.16301539 -205.90454376 63.52605338 -202.25561523 62.12939453 C-201.22436523 61.34564453 -200.19311523 60.56189453 -199.13061523 59.75439453 C-195.33435025 56.90928165 -191.3117064 55.60205618 -186.80639648 54.21923828 C-183.89510182 52.975362 -182.37999113 51.44482779 -180.25561523 49.12939453 C-176.77102855 46.69018385 -175.63489052 46.12939453 -171.25561523 46.12939453 C-171.25561523 45.46939453 -171.25561523 44.80939453 -171.25561523 44.12939453 C-164.75561523 41.12939453 -164.75561523 41.12939453 -160.25561523 41.12939453 C-160.25561523 40.46939453 -160.25561523 39.80939453 -160.25561523 39.12939453 C-156.85050431 37.17145575 -154.45609588 36.14610125 -150.50561523 35.81689453 C-146.88472559 35.48652294 -144.74933375 34.34768746 -141.72827148 32.34814453 C-136.21024024 28.93649124 -130.6068438 26.89097743 -124.44311523 24.94189453 C-123.3922876 24.6009375 -122.34145996 24.25998047 -121.25878906 23.90869141 C-103.17612928 18.12939453 -103.17612928 18.12939453 -96.25561523 18.12939453 C-96.25561523 17.46939453 -96.25561523 16.80939453 -96.25561523 16.12939453 C-95.45639648 15.94763672 -94.65717773 15.76587891 -93.83374023 15.57861328 C-88.41695938 14.3388571 -83.01167326 13.07907946 -77.63061523 11.69189453 C-62.1445801 7.78957799 -46.45466871 4.36311137 -30.48657227 3.52319336 C-20.29240556 2.96064717 -10.03463574 0.00844266 0 0 Z " fill="#E8E1E7" transform="translate(1036.255615234375,745.87060546875)"/>
<path d="M0 0 C27.39 0 54.78 0 83 0 C83 234.96 83 469.92 83 712 C136.13 712 189.26 712 244 712 C244 738.73 244 765.46 244 793 C102.76 793 -38.48 793 -184 793 C-184 766.27 -184 739.54 -184 712 C-129.88 712 -75.76 712 -20 712 C-20 537.43 -20 362.86 -20 183 C-74.12 183 -128.24 183 -184 183 C-184 158.91 -184 134.82 -184 110 C-172.12 109.34 -160.24 108.68 -148 108 C-141.94380136 107.47005369 -135.9606965 106.92650949 -129.9375 106.1875 C-128.8846431 106.06202789 -128.8846431 106.06202789 -127.81051636 105.934021 C-87.08648278 101.06251115 -46.48904544 92.59323835 -19.6875 58.75 C-7.9262377 43.14397688 -3.27428498 24.19559269 -1.359375 5.02734375 C-1 2 -1 2 0 0 Z " fill="#9FCE3C" transform="translate(364,657)"/>
<path d="M0 0 C27.39 0 54.78 0 83 0 C83 234.96 83 469.92 83 712 C136.13 712 189.26 712 244 712 C244 738.73 244 765.46 244 793 C102.76 793 -38.48 793 -184 793 C-184 766.27 -184 739.54 -184 712 C-129.88 712 -75.76 712 -20 712 C-20 537.43 -20 362.86 -20 183 C-74.12 183 -128.24 183 -184 183 C-184 158.91 -184 134.82 -184 110 C-172.12 109.34 -160.24 108.68 -148 108 C-141.86068966 107.44924393 -135.79366082 106.88379472 -129.6875 106.125 C-128.23331815 105.94961662 -126.77913517 105.77424252 -125.32495117 105.59887695 C-88.60610837 101.09805495 -54.19345633 93.72541061 -27 67 C-26.30261719 66.31550781 -25.60523438 65.63101563 -24.88671875 64.92578125 C-7.98622208 47.17205563 -3.59126205 23.3432033 0 0 Z " fill="#9ECD3C" transform="translate(1731,657)"/>
<path d="M0 0 C-0.523115 3.8187395 -1.3085841 5.75874307 -4 8.5 C-17.44321914 23.25742387 -25.89068521 41.59542915 -33.30859375 59.92578125 C-34.70970011 63.37373517 -36.28231098 66.69594376 -38 70 C-38.66 70 -39.32 70 -40 70 C-40.2165625 71.3921875 -40.2165625 71.3921875 -40.4375 72.8125 C-41 76 -41 76 -42 79 C-42.66 79 -43.32 79 -44 79 C-44.14888672 80.47726562 -44.14888672 80.47726562 -44.30078125 81.984375 C-44.92933792 86.36781732 -46.52971085 90.16881165 -48.1875 94.25 C-54.85240637 111.55238836 -59.17398791 130.40262603 -59 149 C-58.99871094 150.21945312 -58.99742187 151.43890625 -58.99609375 152.6953125 C-58.48468635 168.2354987 -55.32751623 183.75701748 -44 195 C-39.70024615 198.75110851 -35.11604573 202.44197714 -30 205 C-30 205.66 -30 206.32 -30 207 C-29.29101562 207.10570312 -28.58203125 207.21140625 -27.8515625 207.3203125 C-24.65209106 208.08292624 -22.27032649 209.31137407 -19.375 210.875 C-3.8403901 218.93797619 12.8243303 225.07391871 29.37255859 230.70336914 C35.70982518 232.86256165 41.87153131 235.29699653 48 238 C48 238.66 48 239.32 48 240 C48.804375 240.061875 49.60875 240.12375 50.4375 240.1875 C55.1635451 241.26536993 58.87513427 243.51591419 63 246 C63 246.66 63 247.32 63 248 C63.66 248.04125 64.32 248.0825 65 248.125 C69.32665788 249.38694188 72.71836789 251.93008609 76 255 C76 255.66 76 256.32 76 257 C76.81855469 257.23976563 77.63710938 257.47953125 78.48046875 257.7265625 C82.66838834 259.2418364 86.4130068 261.2422955 90.3125 263.375 C97.92100552 267.46812764 97.92100552 267.46812764 105.7734375 271.0625 C107.41934081 271.75551192 109.04733271 272.49141711 110.6640625 273.25 C128.80524083 281.53282088 148.42495937 287.29731374 168 291 C167.6875 292.8671875 167.6875 292.8671875 167 295 C162.46045727 298.21550944 158.48599747 299.5589969 153.015625 300.41015625 C150.93319489 300.82828211 150.93319489 300.82828211 149.73828125 302.3984375 C146.97270188 304.94649939 143.48571859 305.58609828 139.9375 306.5625 C139.17252197 306.78010986 138.40754395 306.99771973 137.61938477 307.22192383 C132.81563652 308.56559052 128.01389432 309.72650637 123.1015625 310.60546875 C121.15075513 310.97169839 119.2281938 311.48048982 117.3125 312 C112.09732294 313.36001537 106.72977388 313.88127263 101.390625 314.53515625 C98.23823252 314.89329754 98.23823252 314.89329754 96.17529297 315.49560547 C68.39264156 321.93768828 35.30641724 318.48159171 7.0625 317.1875 C6.24426758 317.15265503 5.42603516 317.11781006 4.58300781 317.08190918 C-6.05119382 316.61448944 -16.38407528 315.47728929 -26.87304688 313.65722656 C-30.43334578 313.05351925 -33.95281944 312.73829417 -37.5625 312.5625 C-53.56872597 311.29885058 -63.82729469 299.33124995 -74.41015625 288.453125 C-77.50396327 285.52264113 -80.75726033 283.28161693 -84.41796875 281.12109375 C-84.94003906 280.75113281 -85.46210937 280.38117188 -86 280 C-86 279.34 -86 278.68 -86 278 C-86.73863281 277.88269531 -87.47726562 277.76539063 -88.23828125 277.64453125 C-90.9891034 277.00254305 -92.78789153 276.14167174 -95.1875 274.6875 C-98.24045156 272.92368347 -101.19448125 271.47197201 -104.5 270.25 C-122.73499967 263.19496112 -139.54035863 252.86189038 -150 236 C-150.70793621 234.35043989 -151.38824649 232.68759588 -152 231 C-152.66 231 -153.32 231 -154 231 C-159.12085762 221.13708793 -163.55477682 212.14886451 -165 201 C-165.33128906 200.04996094 -165.66257812 199.09992188 -166.00390625 198.12109375 C-167.65534687 192.4474877 -167.38244001 186.54748389 -167.375 180.6875 C-167.37411377 179.44379639 -167.37322754 178.20009277 -167.37231445 176.91870117 C-167.24322578 166.79932854 -165.8943155 157.66892211 -163 148 C-162.76152344 147.154375 -162.52304687 146.30875 -162.27734375 145.4375 C-161.6048989 143.24702095 -160.83056376 141.13573539 -160 139 C-159.56816406 137.86304688 -159.13632812 136.72609375 -158.69140625 135.5546875 C-150.78161896 115.035552 -139.35667976 98.39762055 -124.77734375 82 C-123.52803992 80.59418997 -122.29218906 79.17636545 -121.06640625 77.75 C-117.41473779 73.53598884 -113.6965548 69.71486193 -109.43359375 66.125 C-107.47595301 64.41559941 -105.59527695 62.67475815 -103.72265625 60.875 C-87.42143607 45.23203945 -68.25201745 30.09287802 -47.1875 21.375 C-44.05263112 20.18472229 -44.05263112 20.18472229 -41.9375 18.375 C-39.38433533 16.56307668 -37.07167865 16.34905439 -34 16 C-34 15.34 -34 14.68 -34 14 C-32.76636719 13.54560547 -32.76636719 13.54560547 -31.5078125 13.08203125 C-25.27751265 10.74387022 -19.2716574 8.25587212 -13.359375 5.203125 C-3.15584416 0 -3.15584416 0 0 0 Z " fill="#C7BAC6" transform="translate(911,829)"/>
<path d="M0 0 C1.38853472 -0.00067653 2.77706932 -0.00164943 4.16560364 -0.00289917 C7.04880929 -0.00435828 9.93198359 -0.00227897 12.81518555 0.00244141 C16.47940393 0.00815384 20.14354926 0.00483867 23.80776501 -0.00113106 C26.6656396 -0.0047716 29.52349731 -0.00358243 32.38137245 -0.00100327 C34.37910129 -0.0000285 36.37683084 -0.00302153 38.3745575 -0.00613403 C45.64605776 0.01242078 52.79241795 0.31575193 60.01953125 1.1328125 C60.01953125 1.4628125 60.01953125 1.7928125 60.01953125 2.1328125 C59.09911545 2.13059189 58.17869965 2.12837128 57.23039246 2.12608337 C48.56351901 2.1060604 39.89665332 2.09082809 31.22976208 2.08100033 C26.77385154 2.07577797 22.3179601 2.06869201 17.86206055 2.05737305 C13.56324895 2.04652125 9.26445572 2.04053078 4.96563148 2.03793526 C3.32415795 2.03608516 1.68268544 2.03247246 0.04121971 2.02708244 C-2.25485039 2.01984162 -4.55084418 2.01882285 -6.84692383 2.01928711 C-8.15486404 2.0170665 -9.46280426 2.01484589 -10.81037903 2.01255798 C-14.00554052 1.98559259 -14.00554052 1.98559259 -16.98046875 3.1328125 C-19.54318118 3.52334821 -22.09644505 3.87652857 -24.66796875 4.1953125 C-25.35052734 4.28619141 -26.03308594 4.37707031 -26.73632812 4.47070312 C-31.51898971 5.07135845 -36.16058851 5.21395527 -40.98046875 5.1328125 C-40.98046875 4.8028125 -40.98046875 4.4728125 -40.98046875 4.1328125 C-39.27696831 3.6367382 -37.56716037 3.16234063 -35.85546875 2.6953125 C-34.90414062 2.42847656 -33.9528125 2.16164063 -32.97265625 1.88671875 C-22.29623691 -0.47312972 -10.8704375 -0.01701594 0 0 Z " fill="#A08885" transform="translate(1044.98046875,744.8671875)"/>
<path d="M0 0 C0.66 0.33 1.32 0.66 2 1 C-6.91 9.91 -15.82 18.82 -25 28 C-25 25 -25 25 -23.6796875 23.421875 C-22.78636719 22.59429688 -22.78636719 22.59429688 -21.875 21.75 C-19.44217771 19.4293118 -17.19039567 17.10271536 -15.0625 14.5 C-12.26865688 11.16686276 -9.14396148 8.39184655 -5.8359375 5.578125 C-3.7854109 3.81554469 -1.87227771 1.95028928 0 0 Z " fill="#D1C6D0" transform="translate(808,889)"/>
<path d="M0 0 C6.09873687 0.73590861 11.97384403 2.10725381 17.9375 3.5625 C18.90751953 3.79646484 19.87753906 4.03042969 20.87695312 4.27148438 C23.25201551 4.84477529 25.62632053 5.42101488 28 6 C27.625 7.9375 27.625 7.9375 27 10 C26.01 10.495 26.01 10.495 25 11 C25 9.68 25 8.36 25 7 C23.845 6.938125 22.69 6.87625 21.5 6.8125 C14.08337211 6.02678982 7.04247782 3.34173189 0 1 C0 0.67 0 0.34 0 0 Z " fill="#D4C8D3" transform="translate(1051,1114)"/>
<path d="M0 0 C-0.33 1.32 -0.66 2.64 -1 4 C-1 3.34 -1 2.68 -1 2 C-4.0745356 2.7763932 -4.0745356 2.7763932 -6 5 C-6.99 4.67 -7.98 4.34 -9 4 C-9.33 4.66 -9.66 5.32 -10 6 C-10.66 5.34 -11.32 4.68 -12 4 C-10.56570999 3.32645501 -9.12742943 2.66140299 -7.6875 2 C-6.88699219 1.62875 -6.08648438 1.2575 -5.26171875 0.875 C-3 0 -3 0 0 0 Z " fill="#461F18" transform="translate(979,704)"/>
<path d="M0 0 C-0.30618405 3.67420866 -0.75771784 4.78135513 -3.5625 7.3125 C-4.366875 7.869375 -5.17125 8.42625 -6 9 C-4.79618552 6.50638429 -3.54571278 4.31856917 -2 2 C-3.98 2.66 -5.96 3.32 -8 4 C-5.57415142 1.34311822 -3.76063134 0 0 0 Z " fill="#D7CDD6" transform="translate(911,829)"/>
<path d="M0 0 C-3.03525486 2.02350324 -4.19426202 2.32124018 -7.6875 2.625 C-8.49574219 2.69976563 -9.30398438 2.77453125 -10.13671875 2.8515625 C-10.75160156 2.90054688 -11.36648438 2.94953125 -12 3 C-4.82142857 -1.78571429 -4.82142857 -1.78571429 0 0 Z " fill="#B7A5A3" transform="translate(916,772)"/>
</svg>
