<?xml version="1.0" standalone="no"?>
<!DOCTYPE svg PUBLIC "-//W3C//DTD SVG 20010904//EN"
 "http://www.w3.org/TR/2001/REC-SVG-20010904/DTD/svg10.dtd">
<svg version="1.0" xmlns="http://www.w3.org/2000/svg"
 width="1280.000000pt" height="797.000000pt" viewBox="0 0 1280.000000 797.000000"
 preserveAspectRatio="xMidYMid meet">
<metadata>
Created by potrace 1.15, written by Peter Selinger 2001-2017
</metadata>
<g transform="translate(0.000000,797.000000) scale(0.100000,-0.100000)"
fill="#000000" stroke="none">
<path d="M3867 7956 c-3 -7 -27 -19 -54 -25 -131 -34 -42 52 -1939 -1845
-1656 -1656 -1773 -1776 -1806 -1841 -20 -38 -39 -85 -43 -102 -3 -18 -11 -35
-16 -38 -12 -8 -12 -232 0 -240 5 -3 13 -20 16 -38 4 -17 23 -63 43 -102 33
-65 150 -185 1806 -1841 1897 -1897 1808 -1811 1939 -1845 27 -6 51 -18 54
-25 4 -11 30 -14 105 -14 61 0 97 4 93 10 -3 5 20 17 52 26 129 36 264 139
328 247 86 147 100 337 36 500 -35 91 -118 178 -1327 1387 -684 685 -1244
1248 -1244 1253 0 4 2350 8 5223 9 4357 3 5228 5 5257 17 19 7 67 29 107 48
122 58 233 188 273 318 7 22 16 44 21 50 5 5 9 59 9 120 0 61 -4 115 -9 120
-5 6 -14 28 -21 50 -41 132 -149 258 -272 318 -40 19 -89 41 -108 48 -29 12
-900 14 -5257 17 -2873 1 -5223 5 -5223 9 0 5 560 568 1244 1253 1209 1209
1292 1296 1327 1387 47 120 53 271 15 382 -33 97 -68 154 -141 225 -68 67
-148 115 -238 140 -32 9 -55 21 -52 26 4 6 -32 10 -93 10 -75 0 -101 -3 -105
-14z"/>
</g>
</svg>
